<svg xmlns="http://www.w3.org/2000/svg" xmlns:xlink="http://www.w3.org/1999/xlink" viewBox="0 0 26.75 26.75"><defs><style>.cls-1{fill:url(#linear-gradient);}.cls-2{fill:url(#linear-gradient-2);}.cls-3{fill:url(#linear-gradient-3);}</style><linearGradient id="linear-gradient" y1="13.37" x2="26.75" y2="13.37" gradientUnits="userSpaceOnUse"><stop offset="0" stop-color="#ee7f7e"/><stop offset="1" stop-color="#eeb26d"/></linearGradient><linearGradient id="linear-gradient-2" x1="26.11" y1="21.36" x2="21.5" y2="25.97" gradientUnits="userSpaceOnUse"><stop offset="0" stop-color="#4e53d4"/><stop offset="1" stop-color="#5373d4"/></linearGradient><linearGradient id="linear-gradient-3" x1="14.53" y1="9.6" x2="9.71" y2="14.42" gradientTransform="translate(12.04 -5.05) rotate(45)" xlink:href="#linear-gradient-2"/></defs><title>Asset 17</title><g id="Layer_2" data-name="Layer 2"><g id="Layer_1-2" data-name="Layer 1"><polygon class="cls-1" points="21.93 0 19.55 2.39 22.05 4.89 21.38 5.57 18.87 3.06 16.81 5.12 18.24 6.54 17.56 7.22 16.14 5.79 14.08 7.85 15.5 9.28 14.83 9.95 13.4 8.53 11.28 10.65 13.79 13.16 13.11 13.83 10.61 11.32 8.59 13.34 10.02 14.76 9.34 15.44 7.92 14.01 5.86 16.07 7.28 17.5 6.61 18.17 5.18 16.75 3.06 18.87 5.57 21.38 4.89 22.05 2.39 19.55 0 21.93 4.82 26.75 26.75 4.82 21.93 0"/><polygon class="cls-2" points="25.75 25.07 24.43 19.69 19.82 24.3 25.75 25.07"/><rect class="cls-3" x="8.72" y="-0.89" width="6.81" height="25.8" transform="translate(-4.94 12.09) rotate(-45)"/></g></g></svg>