<svg xmlns="http://www.w3.org/2000/svg" xmlns:xlink="http://www.w3.org/1999/xlink" viewBox="0 0 16.77 16.77"><defs><style>.cls-1{fill:url(#linear-gradient);}.cls-2{fill:#fff;}</style><linearGradient id="linear-gradient" y1="8.38" x2="16.77" y2="8.38" gradientUnits="userSpaceOnUse"><stop offset="0" stop-color="#2ee2d5"/><stop offset="1" stop-color="#6998df"/></linearGradient></defs><title>Asset 22</title><g id="Layer_2" data-name="Layer 2"><g id="Layer_1-2" data-name="Layer 1"><circle class="cls-1" cx="8.38" cy="8.38" r="8.38"/><g id="xqh56A.tif"><path class="cls-2" d="M12.39,11.91h-8c-.42,0-.63-.19-.66-.36l3-2.79.72.68a1.43,1.43,0,0,0,2,0l.72-.68,3,2.79C13.06,11.7,12.77,11.91,12.39,11.91Z"/><path class="cls-2" d="M13.42,10.93a.4.4,0,0,1-.16-.08L10.74,8.46a.28.28,0,0,1-.06-.08l.13-.15L13.22,6a.86.86,0,0,1,.2-.13Z"/><path class="cls-2" d="M3.73,5.07a1,1,0,0,1,.83-.42h7.62A1,1,0,0,1,13,5l-.18.19L9.07,8.77a.9.9,0,0,1-1.38,0L3.92,5.22Z"/><path class="cls-2" d="M6.1,8.38,3.36,11V5.79Z"/></g></g></g></svg>