<svg xmlns="http://www.w3.org/2000/svg" xmlns:xlink="http://www.w3.org/1999/xlink" viewBox="0 0 16.77 16.79"><defs><style>.cls-1{fill:url(#linear-gradient);}.cls-2{fill:#fff;}</style><linearGradient id="linear-gradient" y1="8.38" x2="16.77" y2="8.38" gradientUnits="userSpaceOnUse"><stop offset="0" stop-color="#f090d3"/><stop offset="1" stop-color="#d46ed2"/></linearGradient></defs><title>Asset 24</title><g id="Layer_2" data-name="Layer 2"><g id="Layer_1-2" data-name="Layer 1"><circle class="cls-1" cx="8.38" cy="8.38" r="8.38"/><g id="c8btVX.tif"><path class="cls-2" d="M5.57,16.28c.21-.07,1-.24,1-1.53,0-.39,0-.78,0-1.17v-.14l-.63,0a2.72,2.72,0,0,1-1-.12,1.53,1.53,0,0,1-.9-.83,3.2,3.2,0,0,0-.51-.83,3.68,3.68,0,0,0-.38-.31,1.9,1.9,0,0,1-.21-.19c-.08-.09,0-.18.07-.21a1.1,1.1,0,0,1,.88.2,2.93,2.93,0,0,1,.64.72,1.51,1.51,0,0,0,1.78.55l.1,0a.31.31,0,0,0,.23-.25A1.75,1.75,0,0,1,7,11.37l-.57-.12a4.05,4.05,0,0,1-1.39-.49A2.8,2.8,0,0,1,3.85,9.28a4.63,4.63,0,0,1-.24-2,2.75,2.75,0,0,1,.64-1.54.34.34,0,0,0,.06-.33A2.76,2.76,0,0,1,4.4,3.74c0-.14.1-.17.25-.15A3.29,3.29,0,0,1,5.8,4l.6.34a.4.4,0,0,0,.32,0,7.19,7.19,0,0,1,2.53-.15,5.75,5.75,0,0,1,.83.14.73.73,0,0,0,.52-.09,8.1,8.1,0,0,1,.93-.47,3.15,3.15,0,0,1,.69-.16.22.22,0,0,1,.25.15,2.55,2.55,0,0,1,.13,1.52.7.7,0,0,0,.11.63,4.79,4.79,0,0,1,.33.58A3,3,0,0,1,13.3,7.7,4,4,0,0,1,12.68,10a2.55,2.55,0,0,1-1.07.91,6.42,6.42,0,0,1-1.66.47l-.08,0c.09.14.18.27.26.42a1.65,1.65,0,0,1,.19.79c0,.68,0,1.37,0,2v.16a1.56,1.56,0,0,0,.93,1.48A8,8,0,0,1,5.57,16.28Z"/></g></g></g></svg>