<svg xmlns="http://www.w3.org/2000/svg" xmlns:xlink="http://www.w3.org/1999/xlink" viewBox="0 0 27.86 22.61"><defs><style>.cls-1{fill:url(#linear-gradient);}.cls-2{fill:url(#linear-gradient-2);}</style><linearGradient id="linear-gradient" x1="13.93" y1="14.96" x2="13.93" gradientUnits="userSpaceOnUse"><stop offset="0" stop-color="#d4a688"/><stop offset="1" stop-color="#f0678c"/></linearGradient><linearGradient id="linear-gradient-2" x1="13.93" y1="22.61" x2="13.93" y2="8.1" xlink:href="#linear-gradient"/></defs><title>Asset 18</title><g id="Layer_2" data-name="Layer 2"><g id="Layer_1-2" data-name="Layer 1"><path class="cls-1" d="M1,11.15A7.17,7.17,0,0,0,7,15c2.22,0,4.16-1.25,6.09-3.93l.11-.15C15.39,7.67,17.92,6.1,21,6.1a8.84,8.84,0,0,1,6.91,3.6V5.94A6,6,0,0,0,21.92,0h-16A6,6,0,0,0,0,5.94v3Z"/><path class="cls-2" d="M27,12A7.18,7.18,0,0,0,21,8.1c-2.34,0-4.27,1.25-6.07,3.91l-.12.18C12.44,15.4,9.92,17,7,17a8.88,8.88,0,0,1-7-3.75v3.47a6,6,0,0,0,5.94,5.93h16a6,6,0,0,0,5.94-5.93V13.41Z"/></g></g></svg>