<svg xmlns="http://www.w3.org/2000/svg" viewBox="0 0 12.41 110.83"><defs><style>.cls-1{fill:#1d4c66;}</style></defs><title>Asset 4</title><g id="Layer_2" data-name="Layer 2"><g id="Layer_1-2" data-name="Layer 1"><path class="cls-1" d="M11.48,0V1.74H6.87V6h4.61V7.74H.21V6H5.35V1.74H.21V0Z"/><path class="cls-1" d="M4.43,10.15a4.23,4.23,0,0,1,4.39,4.31,3.65,3.65,0,0,1-4,3.88,6.86,6.86,0,0,1-.93-.08V11.34H5.18v5.85l-.42-.37c1.82,0,2.74-.88,2.74-2.31s-1.09-2.68-3.07-2.68a2.85,2.85,0,0,0-3.09,3.1,4.62,4.62,0,0,0,.74,2.46L1,18a5.92,5.92,0,0,1-1-3.27A4.27,4.27,0,0,1,4.43,10.15Z"/><path class="cls-1" d="M3.15,23.42H11V20.53h1.37v4.61H3.05a1.45,1.45,0,0,0-1.64,1.58,3.81,3.81,0,0,0,.35,1.51l-1.27.41A5.51,5.51,0,0,1,0,26.32C0,24.44,1.12,23.42,3.15,23.42Z"/><path class="cls-1" d="M3.15,33.75H11V30.86h1.37v4.61H3.05a1.45,1.45,0,0,0-1.64,1.58,3.81,3.81,0,0,0,.35,1.51L.49,39A5.51,5.51,0,0,1,0,36.65C0,34.77,1.12,33.75,3.15,33.75Z"/><path class="cls-1" d="M4.4,41a4.2,4.2,0,1,1,0,8.38A4.2,4.2,0,1,1,4.4,41Zm0,6.62c1.81,0,3-.94,3-2.43s-1.2-2.43-3-2.43-3,.94-3,2.43S2.6,47.62,4.4,47.62Z"/><path class="cls-1" d="M11.49,60.83v1.89l-6.8.69c-1,.09-1.58.14-2.67.19v0c1.09.19,1.72.34,2.66.55l3.92,1v1.44l-3.92,1c-.93.22-1.56.35-2.66.55v.07c1.1,0,1.73.08,2.66.17l6.81.66v1.79L.21,69.29v-2l4.26-1a19.5,19.5,0,0,1,2.06-.38v-.06c-.68-.1-1.36-.2-2.06-.37l-4.26-1v-2Z"/><path class="cls-1" d="M4.4,72a4.2,4.2,0,1,1,0,8.38A4.2,4.2,0,1,1,4.4,72Zm0,6.62c1.81,0,3-.94,3-2.43s-1.2-2.43-3-2.43-3,.94-3,2.43S2.6,78.61,4.4,78.61Z"/><path class="cls-1" d="M8.62,83.71v1.42l-1.95.15v0A4.27,4.27,0,0,1,8.82,89a3.51,3.51,0,0,1-.34,1.65L7,90.26a4.09,4.09,0,0,0,.27-1.54c0-1.2-.61-2.36-2.31-3.29H.21V83.71Z"/><path class="cls-1" d="M3.15,95.73H11V92.84h1.37v4.61H3.05A1.45,1.45,0,0,0,1.41,99a3.81,3.81,0,0,0,.35,1.51L.49,101A5.51,5.51,0,0,1,0,98.63C0,96.75,1.12,95.73,3.15,95.73Z"/><path class="cls-1" d="M4.4,103c2.74,0,4.42,1.81,4.42,3.75a3.36,3.36,0,0,1-1,2.42v0l1.48-.08h3.14v1.72H.21v-1.4l1-.14v-.06A3.9,3.9,0,0,1,0,106.59C0,104.42,1.61,103,4.4,103Zm-1.85,6.13h4a2.82,2.82,0,0,0,.86-2c0-1.31-1.14-2.38-3-2.38s-3,.85-3,2.25A2.78,2.78,0,0,0,2.55,109.11Z"/></g></g></svg>