<svg xmlns="http://www.w3.org/2000/svg" xmlns:xlink="http://www.w3.org/1999/xlink" viewBox="0 0 114.24 247.24"><defs><style>.cls-1{fill:#3a3a3a;}.cls-2{fill:url(#linear-gradient);}.cls-3{fill:url(#linear-gradient-2);}.cls-4{fill:url(#linear-gradient-3);}.cls-5{fill:url(#linear-gradient-4);}.cls-6{fill:url(#linear-gradient-5);}.cls-7{fill:url(#linear-gradient-6);}.cls-8{fill:#fff;}</style><linearGradient id="linear-gradient" y1="21.85" x2="57.54" y2="21.85" gradientTransform="translate(0.3 -0.39) rotate(0.79)" gradientUnits="userSpaceOnUse"><stop offset="0" stop-color="#eeac94"/><stop offset="1" stop-color="#ee328e"/></linearGradient><linearGradient id="linear-gradient-2" x1="23.56" y1="36.01" x2="74.45" y2="36.01" gradientUnits="userSpaceOnUse"><stop offset="0" stop-color="#2ee2d5"/><stop offset="1" stop-color="#6998df"/></linearGradient><linearGradient id="linear-gradient-3" x1="53.06" y1="220.59" x2="86.69" y2="220.59" gradientUnits="userSpaceOnUse"><stop offset="0" stop-color="#ee7d7c"/><stop offset="1" stop-color="#eeb26d"/></linearGradient><linearGradient id="linear-gradient-4" x1="72.42" y1="240.59" x2="85.34" y2="240.59" xlink:href="#linear-gradient-3"/><linearGradient id="linear-gradient-5" x1="54.42" y1="240.41" x2="67.44" y2="240.41" xlink:href="#linear-gradient-3"/><linearGradient id="linear-gradient-6" x1="59.96" y1="220.75" x2="79.89" y2="220.75" xlink:href="#linear-gradient-3"/></defs><title>Asset 27</title><g id="Layer_2" data-name="Layer 2"><g id="Layer_1-2" data-name="Layer 1"><path class="cls-1" d="M2.54,76.81v-.88l4-2.66v1.14l-3,1.94v0l3,1.94v1.13Z"/><path class="cls-1" d="M8.5,74.69h1l.1.59h0a2.58,2.58,0,0,1,1.67-.72c1.35,0,2.11,1,2.11,2.64,0,1.78-1.1,2.81-2.3,2.81a2.16,2.16,0,0,1-1.41-.62h0l.06.91v1.63H8.5Zm3.66,2.52c0-1-.36-1.64-1.2-1.64a1.74,1.74,0,0,0-1.23.62v2.34a1.73,1.73,0,0,0,1.12.46C11.59,79,12.16,78.39,12.16,77.21Z"/><path class="cls-1" d="M15.06,78.33l3-1.94v0l-3-1.94V73.27l4,2.66v.88l-4,2.65Z"/><path class="cls-1" d="M21.08,73h1.23v2.77h2.37V73h1.23v6.91H24.68V76.82H22.31v3.06H21.08Z"/><path class="cls-1" d="M27.31,77.28A2.63,2.63,0,0,1,30,74.56,2.27,2.27,0,0,1,32.4,77a4.41,4.41,0,0,1,0,.62H28.19v-.87h3.37l-.24.27c0-1-.48-1.54-1.29-1.54s-1.52.62-1.52,1.78a1.63,1.63,0,0,0,1.8,1.78,2.77,2.77,0,0,0,1.46-.43l.42.76a3.81,3.81,0,0,1-2,.62A2.65,2.65,0,0,1,27.31,77.28Z"/><path class="cls-1" d="M35.39,78V73.38H33.66v-1h3v5.64a.86.86,0,0,0,.93,1,2.3,2.3,0,0,0,.89-.2l.28.9a3.67,3.67,0,0,1-1.47.3A1.76,1.76,0,0,1,35.39,78Z"/><path class="cls-1" d="M41.74,78V73.38H40v-1h3v5.64a.86.86,0,0,0,.93,1,2.26,2.26,0,0,0,.89-.2l.29.9a3.76,3.76,0,0,1-1.48.3C42.38,80,41.74,79.26,41.74,78Z"/><path class="cls-1" d="M46.26,77.29A2.61,2.61,0,1,1,48.87,80,2.57,2.57,0,0,1,46.26,77.29Zm4,0c0-1.05-.51-1.73-1.36-1.73s-1.36.68-1.36,1.73S48,79,48.87,79,50.23,78.33,50.23,77.29Z"/><path class="cls-1" d="M58.46,73h1.31l.35,4c0,.58.07,1,.09,1.67h0c.11-.66.21-1.09.34-1.67l.56-2.24h.93L62.62,77c.13.57.22,1,.34,1.67h0c0-.66,0-1.1.08-1.67l.34-4h1.24l-.94,6.92H62.34l-.54-2.46a9.8,9.8,0,0,1-.22-1.28h0c-.06.42-.12.85-.22,1.28l-.53,2.46H59.44Z"/><path class="cls-1" d="M65.29,77.29A2.61,2.61,0,1,1,67.9,80,2.57,2.57,0,0,1,65.29,77.29Zm4,0c0-1.05-.51-1.73-1.36-1.73s-1.35.68-1.35,1.73S67.05,79,67.9,79,69.26,78.33,69.26,77.29Z"/><path class="cls-1" d="M72.45,74.69h1l.1,1.18h0a2.57,2.57,0,0,1,2.21-1.31,2.12,2.12,0,0,1,1,.21l-.26,1a2.81,2.81,0,0,0-.94-.16A2.18,2.18,0,0,0,73.67,77v2.86H72.45Z"/><path class="cls-1" d="M79.8,78V73.38H78.07v-1h3v5.64A.86.86,0,0,0,82,79a2.3,2.3,0,0,0,.89-.2l.28.9a3.67,3.67,0,0,1-1.47.3A1.76,1.76,0,0,1,79.8,78Z"/><path class="cls-1" d="M84.33,77.29a2.47,2.47,0,0,1,2.28-2.73,1.94,1.94,0,0,1,1.43.61h0L88,74.29V72.41h1.22v7.47h-1l-.1-.61h0a2.33,2.33,0,0,1-1.57.74C85.21,80,84.33,79,84.33,77.29ZM88,78.37V76a1.53,1.53,0,0,0-1.1-.47c-.73,0-1.33.62-1.33,1.7S86.05,79,86.84,79A1.49,1.49,0,0,0,88,78.37Z"/><path class="cls-1" d="M91.35,76.81v-.88l4-2.66v1.14l-3,1.94v0l3,1.94v1.13Z"/><path class="cls-1" d="M100.84,72.37h1l-3.47,9.2h-1Z"/><path class="cls-1" d="M103.66,74.69h1l.1.59h0a2.58,2.58,0,0,1,1.67-.72c1.35,0,2.11,1,2.11,2.64,0,1.78-1.1,2.81-2.3,2.81a2.16,2.16,0,0,1-1.41-.62h0l.06.91v1.63h-1.23Zm3.66,2.52c0-1-.36-1.64-1.2-1.64a1.74,1.74,0,0,0-1.23.62v2.34A1.73,1.73,0,0,0,106,79C106.75,79,107.32,78.39,107.32,77.21Z"/><path class="cls-1" d="M110.22,78.33l3-1.94v0l-3-1.94V73.27l4,2.66v.88l-4,2.65Z"/><rect class="cls-2" x="0.29" y="0.39" width="56.95" height="42.92" transform="translate(-0.3 0.4) rotate(-0.79)"/><polygon class="cls-3" points="23.56 58.47 47.83 13.54 74.44 57.78 23.56 58.47"/><g id="C9T7Cm.tif"><path class="cls-4" d="M70.44,204l2.2,3.37c.78-.6,1.53-1.21,2.33-1.76,1.08-.73,1.86-.39,2.11.88.09.46.15.92.22,1.39s.11.92.18,1.54c1-.25,1.86-.48,2.75-.69,1.42-.34,2,.26,1.75,1.67-.2.9-.44,1.79-.69,2.8.95.13,1.78.22,2.61.36,1.71.3,2,1.05,1,2.43-.5.68-1,1.34-1.62,2.13.93.54,1.78,1,2.58,1.52,1.09.72,1.08,1.56,0,2.29-.8.53-1.65,1-2.55,1.53.64.85,1.23,1.57,1.76,2.33.77,1.13.43,1.94-.93,2.18-.87.15-1.76.24-2.85.38.24.95.47,1.83.67,2.71.34,1.51-.25,2.1-1.76,1.77-.86-.19-1.71-.44-2.68-.7-.14,1-.27,1.84-.41,2.71-.26,1.61-1,1.92-2.36,1-.69-.5-1.36-1-2.15-1.63-.51.86-1,1.69-1.49,2.49-.75,1.17-1.6,1.17-2.37,0-.26-.39-.47-.81-.7-1.21l-.78-1.29c-.81.6-1.56,1.21-2.35,1.75-1.14.79-1.91.44-2.15-.94-.16-.91-.28-1.83-.43-2.85-1,.26-2,.55-2.91.72-1.31.24-1.84-.34-1.56-1.65.19-.9.44-1.8.7-2.85L56,228c-1.7-.23-2.06-1-1.07-2.4.49-.69,1-1.35,1.56-2.06l-3.41-2.43v-.51l3.37-2.65c-.56-.73-1.16-1.45-1.68-2.22-.75-1.09-.45-1.83.86-2.1,1-.2,1.91-.3,3-.46-.15-.56-.26-1-.37-1.46s-.24-.9-.33-1.35c-.28-1.36.33-2,1.66-1.67.9.2,1.78.46,2.8.73.16-1,.28-1.93.43-2.83.25-1.43,1-1.76,2.24-.91.76.53,1.48,1.11,2.22,1.67l2.2-3.36C69.88,203.55,70.18,203.64,70.44,204ZM58.58,220.6a11.34,11.34,0,1,0,11.51-11.24A11.33,11.33,0,0,0,58.58,220.6Z"/><path class="cls-5" d="M73.07,236.28c2.52,2.18,5.06,2.23,5.67-2.35A2.37,2.37,0,0,1,81,235.34c1.15,2.18,2.44,4.28,3.67,6.41.2.35.37.72.64,1.25l-5.49-1L78,247.24c-.27-.41-.49-.69-.67-1-1.51-2.6-3-5.23-4.55-7.8A1.48,1.48,0,0,1,73.07,236.28Z"/><path class="cls-6" d="M54.42,243c1.71-3,3.2-5.66,4.84-8.29.31-.49,1.15-.66,1.82-1,.62,4.83,3.2,4.75,5.68,2.59a1.42,1.42,0,0,1,.35,2.14c-1.7,2.79-3.3,5.64-4.94,8.47,0,.06-.13.09-.32.23L60,242Z"/><path class="cls-7" d="M70,210.79a9.92,9.92,0,0,0-10,9.77,10,10,0,1,0,19.93.28A9.93,9.93,0,0,0,70,210.79Z"/><path class="cls-7" d="M70,210.79a10,10,0,0,1-.09,19.93A10,10,0,0,1,60,220.56,9.92,9.92,0,0,1,70,210.79Z"/></g><polygon class="cls-8" points="70.18 224.16 66.56 226.06 67.25 222.03 64.32 219.17 68.36 218.59 70.18 214.92 71.99 218.59 76.04 219.17 73.11 222.03 73.8 226.06 70.18 224.16"/></g></g></svg>