<svg xmlns="http://www.w3.org/2000/svg" xmlns:xlink="http://www.w3.org/1999/xlink" viewBox="0 0 115.44 292.45"><defs><style>.cls-1{fill:url(#linear-gradient);}.cls-2{fill:url(#linear-gradient-2);}.cls-3{fill:url(#linear-gradient-3);}.cls-4{fill:#bdcde5;}.cls-5{fill:#4984ef;}.cls-6{fill:#fff;}</style><linearGradient id="linear-gradient" x1="3" y1="277.51" x2="3" gradientUnits="userSpaceOnUse"><stop offset="0" stop-color="#4984ff"/><stop offset="0.76" stop-color="#f691df"/><stop offset="1" stop-color="#f691df" stop-opacity="0"/></linearGradient><linearGradient id="linear-gradient-2" x1="57.72" y1="272.72" x2="57.72" y2="0.25" xlink:href="#linear-gradient"/><linearGradient id="linear-gradient-3" x1="57.72" y1="277.51" x2="57.72" y2="0" xlink:href="#linear-gradient"/></defs><title>Asset 26</title><g id="Layer_2" data-name="Layer 2"><g id="Layer_1-2" data-name="Layer 1"><rect class="cls-1" width="6" height="4.5"/><path class="cls-2" d="M60.72,263.82h-6v-9.13h6Zm0-18.26h-6v-9.14h6Zm0-18.27h-6v-9.14h6Zm.37-17.39-5.77-1.66A15.65,15.65,0,0,1,62,199.38l3.22,5.06A9.68,9.68,0,0,0,61.09,209.9Zm38.63-7H90.58v-6h9.14Zm-18.27,0H72.32v-6h9.13Zm28.62-3.82-3.94-4.53a9.57,9.57,0,0,0,3.23-6l6,.78A15.65,15.65,0,0,1,110.07,199.13Zm5.37-19.26h-6v-9.14h6Zm0-18.27h-6v-9.13h6Zm0-18.27h-6V134.2h6Zm-6.6-17.12a9.63,9.63,0,0,0-4.49-5.12l2.83-5.29a15.56,15.56,0,0,1,7.28,8.32ZM15.56,120c-.36,0-.73,0-1.1,0l.44-6c.23,0,.45,0,.7,0h8.21v6H15.56Zm81.32,0H87.74v-6h9.14Zm-18.27,0H69.48v-6h9.13Zm-18.27,0H51.21v-6h9.13Zm-18.26,0H32.94v-6h9.14ZM4.43,115.25A15.57,15.57,0,0,1,0,105.11l6-.29a9.56,9.56,0,0,0,2.72,6.24ZM6,95.84H0V86.7H6ZM6,77.57H0V68.44H6ZM6,59.3H0V50.17H6ZM6,41H0V31.9H6ZM6,22.77H0V13.63H6Z"/><rect class="cls-3" x="54.72" y="273.01" width="6" height="4.5"/><circle class="cls-4" cx="57.72" cy="280.82" r="11.63"/><path class="cls-5" d="M57.72,290.13A9.31,9.31,0,1,1,67,280.82,9.33,9.33,0,0,1,57.72,290.13Z"/><path class="cls-6" d="M57.72,272.51a8.31,8.31,0,1,1-8.31,8.31,8.32,8.32,0,0,1,8.31-8.31m0-2A10.31,10.31,0,1,0,68,280.82a10.31,10.31,0,0,0-10.31-10.31Z"/></g></g></svg>