<svg xmlns="http://www.w3.org/2000/svg" xmlns:xlink="http://www.w3.org/1999/xlink" viewBox="0 0 138.01 121.5"><defs><style>.cls-1{fill:url(#linear-gradient);}.cls-2{fill:url(#linear-gradient-2);}.cls-3{fill:url(#linear-gradient-3);}.cls-4{fill:url(#linear-gradient-4);}</style><linearGradient id="linear-gradient" x1="13.65" y1="87.56" x2="81.54" y2="87.56" gradientUnits="userSpaceOnUse"><stop offset="0" stop-color="#f2e2c0"/><stop offset="1" stop-color="#ff88b2"/></linearGradient><linearGradient id="linear-gradient-2" y1="15.41" x2="27.67" y2="15.41" gradientUnits="userSpaceOnUse"><stop offset="0" stop-color="#955bd4"/><stop offset="1" stop-color="#627ed4"/></linearGradient><linearGradient id="linear-gradient-3" x1="86.6" y1="75.48" x2="86.6" y2="35.5" xlink:href="#linear-gradient-2"/><linearGradient id="linear-gradient-4" x1="128.97" y1="75.48" x2="128.97" y2="40.62" xlink:href="#linear-gradient-2"/></defs><title>Asset 28</title><g id="Layer_2" data-name="Layer 2"><g id="Layer_1-2" data-name="Layer 1"><circle class="cls-1" cx="47.6" cy="87.56" r="33.94"/><g id="as854E.tif"><path class="cls-2" d="M3.61,30.71a5.37,5.37,0,0,1-1.46-.53,3.3,3.3,0,0,1-1.31-5.3,6.82,6.82,0,0,1,7-2.17l.65.21v-.8c0-5,0-12,0-17,0-.55.12-.77.7-.9C15.31,2.79,21,1.47,27.2,0c.52-.15.45.49.45.76,0,6.74,0,13.48,0,20.22a4.08,4.08,0,0,1-1.36,3.2,6.57,6.57,0,0,1-6.82,1.48,3.34,3.34,0,0,1-1.44-5.77A6.62,6.62,0,0,1,24.57,18c.26,0,.51.12.76.18l.1,0V7.23l-14.71,3.4V25c0,2.87-1.23,4.21-3.54,5.29a6.19,6.19,0,0,1-1.56.4A5,5,0,0,1,3.61,30.71Z"/></g><path class="cls-3" d="M112.18,35.5H61a3.3,3.3,0,0,0-3.29,3.29V72.18A3.31,3.31,0,0,0,61,75.48h51.16a3.31,3.31,0,0,0,3.29-3.3V38.79A3.3,3.3,0,0,0,112.18,35.5ZM60.27,56.93a1.44,1.44,0,1,1,1.44-1.44A1.45,1.45,0,0,1,60.27,56.93Zm50.18,16.61H62.75V37.43h47.7Z"/><path class="cls-4" d="M135.51,40.62H122.42a2.52,2.52,0,0,0-2.5,2.51V73a2.52,2.52,0,0,0,2.5,2.51h13.09A2.51,2.51,0,0,0,138,73V43.13A2.51,2.51,0,0,0,135.51,40.62ZM129,74.5a1.44,1.44,0,1,1,1.44-1.44A1.44,1.44,0,0,1,129,74.5Zm7.93-3.69H121V43.59H136.9Z"/></g></g></svg>