<svg xmlns="http://www.w3.org/2000/svg" xmlns:xlink="http://www.w3.org/1999/xlink" viewBox="0 0 16.77 16.77"><defs><style>.cls-1{fill:url(#linear-gradient);}.cls-2{fill:#fff;}</style><linearGradient id="linear-gradient" y1="8.38" x2="16.77" y2="8.38" gradientUnits="userSpaceOnUse"><stop offset="0" stop-color="#955bd4"/><stop offset="0.81" stop-color="#627ed4"/></linearGradient></defs><title>Asset 23</title><g id="Layer_2" data-name="Layer 2"><g id="Layer_1-2" data-name="Layer 1"><circle class="cls-1" cx="8.38" cy="8.38" r="8.38"/><g id="ylNzpH.tif"><path class="cls-2" d="M10.77,13.26H6l-.09,0a2.5,2.5,0,0,1-.77-.2,2.61,2.61,0,0,1-1.63-2.48c0-1.45,0-2.9,0-4.35a2.59,2.59,0,0,1,.35-1.32,2.64,2.64,0,0,1,2.4-1.38h4.26a2.56,2.56,0,0,1,.55.05,2.66,2.66,0,0,1,2.11,2,3.25,3.25,0,0,1,.08.43v4.77a1.47,1.47,0,0,1,0,.29,2.63,2.63,0,0,1-2,2.12C11.06,13.22,10.91,13.23,10.77,13.26ZM8.4,4.37H6.27a2.05,2.05,0,0,0-.65.1A1.83,1.83,0,0,0,4.38,6.25c0,1.42,0,2.85,0,4.27a1.93,1.93,0,0,0,.1.63,1.79,1.79,0,0,0,1.77,1.24h4.27a1.93,1.93,0,0,0,.63-.1,1.8,1.8,0,0,0,1.25-1.76V6.24a1.79,1.79,0,0,0-.78-1.53,1.84,1.84,0,0,0-1.11-.34Z"/><path class="cls-2" d="M10.9,8.39A2.51,2.51,0,1,1,8.39,5.87,2.53,2.53,0,0,1,10.9,8.39ZM8.38,6.74A1.65,1.65,0,1,0,10,8.38,1.64,1.64,0,0,0,8.38,6.74Z"/><path class="cls-2" d="M11,6.41a.64.64,0,1,1,.63-.64A.64.64,0,0,1,11,6.41Z"/></g></g></g></svg>