<svg xmlns="http://www.w3.org/2000/svg" xmlns:xlink="http://www.w3.org/1999/xlink" viewBox="0 0 31.62 28.88"><defs><style>.cls-1{fill:url(#linear-gradient);}</style><linearGradient id="linear-gradient" y1="14.44" x2="31.62" y2="14.44" gradientUnits="userSpaceOnUse"><stop offset="0" stop-color="#2ee2d5"/><stop offset="1" stop-color="#6998df"/></linearGradient></defs><title>Asset 15</title><g id="Layer_2" data-name="Layer 2"><g id="Layer_1-2" data-name="Layer 1"><path class="cls-1" d="M27.62,16.58A12,12,0,0,0,21.49,6.43,5.36,5.36,0,1,0,10.87,5.36a4.75,4.75,0,0,0,0,.54A12,12,0,0,0,3.68,16.67,5.36,5.36,0,0,0,5.36,27.12a5.28,5.28,0,0,0,2.87-.84,11.89,11.89,0,0,0,15-.11,5.43,5.43,0,0,0,3.05.95,5.36,5.36,0,0,0,1.36-10.54Zm-11.36-14a2.67,2.67,0,1,1-2.67,2.67A2.67,2.67,0,0,1,16.26,2.61ZM5.28,24.4a2.65,2.65,0,1,1,2.65-2.65A2.65,2.65,0,0,1,5.28,24.4ZM20.9,21.76a5.32,5.32,0,0,0,.34,1.88,8.71,8.71,0,0,1-10.92.19,5.65,5.65,0,0,0,.4-2.07,5.34,5.34,0,0,0-3.81-5.13,8.76,8.76,0,0,1,5.27-7.78,5.3,5.3,0,0,0,4.05,1.87,5.23,5.23,0,0,0,3.69-1.48,8.79,8.79,0,0,1,4.5,7.49A5.34,5.34,0,0,0,20.9,21.76Zm5.38,2.64a2.65,2.65,0,1,1,2.65-2.65A2.65,2.65,0,0,1,26.28,24.4Z"/></g></g></svg>