<svg xmlns="http://www.w3.org/2000/svg" xmlns:xlink="http://www.w3.org/1999/xlink" viewBox="0 0 53.5 55.86"><defs><style>.cls-1{fill:url(#linear-gradient);}.cls-2{fill:url(#linear-gradient-2);}</style><linearGradient id="linear-gradient" x1="58.45" y1="10.83" x2="12.31" y2="37.47" gradientUnits="userSpaceOnUse"><stop offset="0" stop-color="#eeac94"/><stop offset="1" stop-color="#ee328e"/></linearGradient><linearGradient id="linear-gradient-2" x1="13.55" y1="42.06" x2="-2.02" y2="51.05" xlink:href="#linear-gradient"/></defs><title>2tpv05.tif</title><g id="Layer_2" data-name="Layer 2"><g id="Layer_1-2" data-name="Layer 1"><g id="_2tpv05.tif" data-name="2tpv05.tif"><path class="cls-1" d="M53.5,3.41c-.57,2.73-1,5.48-1.73,8.17-2.5,9.6-7.28,17.77-15.14,24a2.17,2.17,0,0,0-.73,1.64,8.39,8.39,0,0,1-3.19,8.06c-1.11.94-2.07,2-3.32,3.28l-3-7c-2.05.58-4,1.19-6,1.64a2.21,2.21,0,0,1-1.72-.5q-4.1-3.94-8-8.06a2.18,2.18,0,0,1-.47-1.72c.43-1.93,1-3.83,1.62-5.91L4.67,23.91c2.27-2.06,4.11-4.17,6.38-5.59,1.33-.85,3.35-.57,5.05-.88a2.87,2.87,0,0,0,1.67-.67C24.78,7.94,34.11,3.11,45,.86,46.29.58,47.66.4,49,.17c2.62-.44,3.26-.14,4.49,2.1ZM40.7,17.79a5.13,5.13,0,0,0-5.16-5.15,5.2,5.2,0,0,0-5.09,5.12,5.13,5.13,0,0,0,5.19,5.12A5.07,5.07,0,0,0,40.7,17.79Z"/><path class="cls-2" d="M.76,55.86C-.93,51.3.33,47.52,4.24,44,2.89,44,2,43.88,1,43.88c-.76,0-1.29-.16-.87-1.05a9,9,0,0,1,3.68-4.4,5.35,5.35,0,0,1,6.23,1C9.32,41,8.52,42.48,8,44c-.37,1,.13,1.77,1.3,1.36,1.57-.55,3.06-1.29,4.85-2.07a5.32,5.32,0,0,1,1.38,5.07,5.67,5.67,0,0,1-4.69,4.06c-2.12.47-4.29.81-6.35,1.47a12.3,12.3,0,0,0-2.83,1.94Z"/></g></g></g></svg>