<svg xmlns="http://www.w3.org/2000/svg" xmlns:xlink="http://www.w3.org/1999/xlink" viewBox="0 0 39.71 23.94"><defs><style>.cls-1{fill:url(#linear-gradient);}.cls-2{fill:url(#linear-gradient-2);}.cls-3{fill:#fff;}</style><linearGradient id="linear-gradient" y1="8.7" x2="25.84" y2="8.7" gradientUnits="userSpaceOnUse"><stop offset="0" stop-color="#6ec5d4"/><stop offset="1" stop-color="#6790f0"/></linearGradient><linearGradient id="linear-gradient-2" x1="13.9" y1="15.19" x2="39.71" y2="15.19" gradientUnits="userSpaceOnUse"><stop offset="0" stop-color="#f090d3"/><stop offset="1" stop-color="#d46ed2"/></linearGradient></defs><title>Asset 19</title><g id="Layer_2" data-name="Layer 2"><g id="Layer_1-2" data-name="Layer 1"><path class="cls-1" d="M20,0H9.81C6.61,0,4,3.1,4,6.88v.54l-4,6,4.45-.26A5.91,5.91,0,0,0,9.81,17.4H20c3.2,0,5.82-3.09,5.82-6.88V6.88C25.84,3.1,23.22,0,20,0ZM14.91,12H8.57V10.65h6.34Zm6.35-3.24H8.57V7.41H21.26Zm0-3.24H8.57V4.17H21.26Z"/><path class="cls-2" d="M13.93,13.27l0,3.64c0,3.79,2.55,6.91,5.75,6.94l10.21.09a5.9,5.9,0,0,0,5.4-4.15l4.45.3L35.78,14v-.54c0-3.79-2.55-6.91-5.75-6.94L19.82,6.45C16.62,6.41,14,9.49,13.93,13.27Z"/><rect class="cls-3" x="18.5" y="10.45" width="12.69" height="1.31"/><rect class="cls-3" x="18.5" y="13.69" width="12.69" height="1.31"/><rect class="cls-3" x="18.5" y="16.92" width="6.34" height="1.31"/></g></g></svg>